<svg width="127" height="31" viewBox="0 0 127 31" fill="none" xmlns="http://www.w3.org/2000/svg">
<path d="M20.28 10.5484C22.3867 10.5484 24.3067 10.9884 26.04 11.8684C27.7733 12.7218 29.1333 13.8818 30.12 15.3484C31.1333 16.8151 31.64 18.3884 31.64 20.0684C31.64 22.2551 30.9467 24.1618 29.56 25.7884C28.1733 27.4151 26.2933 28.6551 23.92 29.5084C21.5467 30.3618 18.8933 30.7884 15.96 30.7884C12.9733 30.7884 10.3067 30.2018 7.96 29.0284C5.64 27.8284 3.82667 26.1751 2.52 24.0684C1.24 21.9618 0.6 19.5618 0.6 16.8684C0.6 11.5084 2.08 7.52176 5.04 4.90843C8.02667 2.26843 12.04 0.948425 17.08 0.948425C23.2133 0.948425 28.0533 2.49509 31.6 5.58843C30 7.29509 28.5333 9.17509 27.2 11.2284C26.1333 10.4284 24.6267 9.78843 22.68 9.30843C20.76 8.80176 19.04 8.54843 17.52 8.54843C15.2 8.54843 13.2533 9.13509 11.68 10.3084C10.1067 11.4551 9.14667 13.1084 8.8 15.2684C8.77333 15.4018 8.76 15.5884 8.76 15.8284C10.04 13.9618 11.72 12.6151 13.8 11.7884C15.9067 10.9618 18.0667 10.5484 20.28 10.5484ZM16.36 23.1884C17.3733 23.1884 18.32 23.0551 19.2 22.7884C20.08 22.4951 20.7733 22.1084 21.28 21.6284C21.7867 21.1218 22.04 20.5884 22.04 20.0284C22.04 19.1484 21.48 18.4018 20.36 17.7884C19.2667 17.1484 17.9333 16.8284 16.36 16.8284C14.7867 16.8284 13.44 17.1484 12.32 17.7884C11.2267 18.4018 10.68 19.1484 10.68 20.0284C10.68 20.5884 10.9333 21.1218 11.44 21.6284C11.9467 22.1084 12.64 22.4951 13.52 22.7884C14.4 23.0551 15.3467 23.1884 16.36 23.1884ZM50.8178 30.7884C45.0845 30.7884 40.8578 29.4684 38.1378 26.8284C35.4178 24.1884 34.0578 20.5218 34.0578 15.8284C34.0578 11.1618 35.4178 7.52176 38.1378 4.90843C40.8845 2.26843 45.1111 0.948425 50.8178 0.948425C56.5245 0.948425 60.7378 2.26843 63.4578 4.90843C66.1778 7.52176 67.5378 11.1618 67.5378 15.8284C67.5378 20.5218 66.1778 24.1884 63.4578 26.8284C60.7378 29.4684 56.5245 30.7884 50.8178 30.7884ZM50.8578 23.7884C53.3111 23.7884 55.0978 23.0418 56.2178 21.5484C57.3378 20.0284 57.8978 18.1218 57.8978 15.8284C57.8978 13.5618 57.3378 11.6818 56.2178 10.1884C55.0978 8.66843 53.3111 7.90843 50.8578 7.90843C48.3245 7.90843 46.4845 8.66843 45.3378 10.1884C44.2178 11.6818 43.6578 13.5618 43.6578 15.8284C43.6578 18.0951 44.2178 19.9884 45.3378 21.5084C46.4845 23.0284 48.3245 23.7884 50.8578 23.7884ZM86.6975 30.7884C80.9642 30.7884 76.7375 29.4684 74.0175 26.8284C71.2975 24.1884 69.9375 20.5218 69.9375 15.8284C69.9375 11.1618 71.2975 7.52176 74.0175 4.90843C76.7642 2.26843 80.9908 0.948425 86.6975 0.948425C92.4042 0.948425 96.6175 2.26843 99.3375 4.90843C102.058 7.52176 103.418 11.1618 103.418 15.8284C103.418 20.5218 102.058 24.1884 99.3375 26.8284C96.6175 29.4684 92.4042 30.7884 86.6975 30.7884ZM86.7375 23.7884C89.1908 23.7884 90.9775 23.0418 92.0975 21.5484C93.2175 20.0284 93.7775 18.1218 93.7775 15.8284C93.7775 13.5618 93.2175 11.6818 92.0975 10.1884C90.9775 8.66843 89.1908 7.90843 86.7375 7.90843C84.2042 7.90843 82.3642 8.66843 81.2175 10.1884C80.0975 11.6818 79.5375 13.5618 79.5375 15.8284C79.5375 18.0951 80.0975 19.9884 81.2175 21.5084C82.3642 23.0284 84.2042 23.7884 86.7375 23.7884Z" fill="black"/>
<path d="M119.577 12.8684H126.697V20.6684H119.577V27.8284H111.777V20.6684H104.617V12.8684H111.777V5.70843H119.577V12.8684Z" fill="#2B788B"/>
</svg>
